<svg width="42" height="32" viewBox="0 0 42 32" fill="none" xmlns="http://www.w3.org/2000/svg">
    <!-- To'q sariq rangdagi musiqa nota belg'isi -->
    <path d="M10.7776 31.7847C10.0814 31.0975 9.88661 29.9654 10.3962 29.2726L17.6196 20.6022L11.5717 15.1912C11.2356 14.7801 11.1924 14.1476 11.5036 13.6709L12.608 11.3776C12.9191 10.9009 13.5517 10.8586 13.9873 11.2495L21 17.8287L28.0127 11.2495C28.4483 10.8586 29.0809 10.9009 29.392 11.3776L30.4964 13.6709C30.8076 14.1476 30.7644 14.7801 30.4283 15.1912L24.3804 20.6022L31.6038 29.2726C32.1134 29.9654 31.9186 31.0975 31.2224 31.7847C30.5262 32.4719 29.3939 32.6667 28.696 31.9795L21 24.2559L13.304 31.9795C12.6061 32.6667 11.4738 32.4719 10.7776 31.7847Z" fill="#FFFF00"/>
    <!-- Nota belg'isining orqa fonini yaratish -->
    <rect x="0" y="0" width="42" height="32" fill="#3E4095" opacity="0.15"/>
</svg>
