<svg width="64" height="64" viewBox="0 0 64 64" fill="none" xmlns="http://www.w3.org/2000/svg">
<g clip-path="url(#clip0_17_2107)">
<path d="M36.213 36.7732C36.933 38.5866 37.333 40.5866 37.333 42.6666C37.333 47.3866 35.2797 51.6532 31.9997 54.5599C29.0805 57.2108 25.2762 58.6755 21.333 58.6666C12.5063 58.6666 5.33301 51.4932 5.33301 42.6666C5.33301 35.3066 10.3463 29.0666 17.1197 27.2266" stroke="#4770FF" stroke-width="2" stroke-linecap="round" stroke-linejoin="round"/>
<path d="M46.88 27.2266C53.6533 29.0666 58.6667 35.3066 58.6667 42.6666C58.6667 51.4932 51.4933 58.6666 42.6667 58.6666C38.7235 58.6755 34.9192 57.2108 32 54.5599" stroke="#4770FF" stroke-width="2" stroke-linecap="round" stroke-linejoin="round"/>
<path d="M16 21.3335C16 25.577 17.6857 29.6466 20.6863 32.6472C23.6869 35.6478 27.7565 37.3335 32 37.3335C36.2435 37.3335 40.3131 35.6478 43.3137 32.6472C46.3143 29.6466 48 25.577 48 21.3335C48 17.09 46.3143 13.0204 43.3137 10.0198C40.3131 7.01921 36.2435 5.3335 32 5.3335C27.7565 5.3335 23.6869 7.01921 20.6863 10.0198C17.6857 13.0204 16 17.09 16 21.3335Z" stroke="#4770FF" stroke-width="2" stroke-linecap="round" stroke-linejoin="round"/>
</g>
<defs>
<clipPath id="clip0_17_2107">
<rect width="64" height="64" fill="white"/>
</clipPath>
</defs>
</svg>
