<svg width="64" height="64" viewBox="0 0 64 64" fill="none" xmlns="http://www.w3.org/2000/svg">
<g clip-path="url(#clip0_17_2875)">
<path d="M13.3333 18.6665H16C17.4145 18.6665 18.771 18.1046 19.7712 17.1044C20.7714 16.1042 21.3333 14.7477 21.3333 13.3332C21.3333 12.6259 21.6143 11.9476 22.1144 11.4476C22.6145 10.9475 23.2928 10.6665 24 10.6665H40C40.7072 10.6665 41.3855 10.9475 41.8856 11.4476C42.3857 11.9476 42.6667 12.6259 42.6667 13.3332C42.6667 14.7477 43.2286 16.1042 44.2288 17.1044C45.229 18.1046 46.5855 18.6665 48 18.6665H50.6667C52.0812 18.6665 53.4377 19.2284 54.4379 20.2286C55.4381 21.2288 56 22.5853 56 23.9998V47.9998C56 49.4143 55.4381 50.7709 54.4379 51.7711C53.4377 52.7713 52.0812 53.3332 50.6667 53.3332H13.3333C11.9188 53.3332 10.5623 52.7713 9.5621 51.7711C8.5619 50.7709 8 49.4143 8 47.9998V23.9998C8 22.5853 8.5619 21.2288 9.5621 20.2286C10.5623 19.2284 11.9188 18.6665 13.3333 18.6665Z" stroke="#4770FF" stroke-width="2" stroke-linecap="round" stroke-linejoin="round"/>
<path d="M24 34.6665C24 36.7882 24.8429 38.8231 26.3431 40.3234C27.8434 41.8237 29.8783 42.6665 32 42.6665C34.1217 42.6665 36.1566 41.8237 37.6569 40.3234C39.1571 38.8231 40 36.7882 40 34.6665C40 32.5448 39.1571 30.5099 37.6569 29.0096C36.1566 27.5094 34.1217 26.6665 32 26.6665C29.8783 26.6665 27.8434 27.5094 26.3431 29.0096C24.8429 30.5099 24 32.5448 24 34.6665Z" stroke="#4770FF" stroke-width="2" stroke-linecap="round" stroke-linejoin="round"/>
</g>
<defs>
<clipPath id="clip0_17_2875">
<rect width="64" height="64" fill="white"/>
</clipPath>
</defs>
</svg>
