<?xml version="1.0" encoding="UTF-8"?>
<svg id="_Слой_2" data-name="Слой 2" xmlns="http://www.w3.org/2000/svg" viewBox="0 0 58.01 18.83">
  <defs>
    <style>
      .cls-1 {
        fill: #0cbbbc;
      }

      .cls-1, .cls-2 {
        stroke-width: 0px;
      }

      .cls-2 {
        fill: #fff;
      }
    </style>
  </defs>
  <g id="_Слой_1-2" data-name="Слой 1">
    <path class="cls-1" d="M3.67,0h48.02c.55,0,1.03.22,1.3.66l4.79,7.77c.37.61.3,1.35-.22,1.96l-6.75,7.77c-.37.42-.85.67-1.39.67H1.53c-.95,0-1.63-.74-1.52-1.67L1.79,1.67c.11-.95.93-1.67,1.87-1.67"/>
    <path class="cls-2" d="M32.32,13.32l.74-5.91c.5-.34,1.07-.61,1.55-.61.63,0,.94.47.84,1.28l-.65,5.25h2.28l.71-5.73.02-.16c.5-.34,1.08-.63,1.57-.63.63,0,.94.47.84,1.28l-.65,5.25h2.28l.71-5.73c.19-1.6-.63-2.57-2.1-2.57-1.02,0-2.1.58-2.82,1.11-.31-.71-.98-1.11-1.94-1.11s-1.87.47-2.6.95l.1-.73h-2.13l-1.02,8.07h2.28ZM45.78,8.54c.23-1.07,1-1.69,1.95-1.69s1.47.53,1.47,1.39c0,.1,0,.21-.01.31h-3.41ZM43.39,9.62c-.03,2.02,1.44,3.89,4.44,3.89,1.07,0,1.97-.21,2.78-.71l.16-1.9c-.66.4-1.66.68-2.53.68-1.15,0-2.18-.5-2.47-1.66h5.58c.08-.21.15-.71.15-1.19,0-2.13-1.18-3.68-3.6-3.68s-4.47,1.44-4.5,4.58M15.68,10.96c0-.87,1.02-1.2,2.07-1.2h1.07l-.16,1.31c-.45.36-1.26.73-1.94.73-.61,0-1.03-.34-1.03-.84M13.4,11.14c-.02,1.31,1.05,2.37,2.68,2.37,1.15,0,1.99-.49,2.47-1.02l-.1.82h2.2l.53-4.37c.26-2.16-.45-3.92-3.23-3.92-1.13,0-2.5.26-3.24.74l-.23,1.81c.6-.32,1.76-.72,2.82-.72,1.28,0,1.73.64,1.68,1.31h-1.36c-1.97,0-4.21.76-4.23,2.97M7.09,11.35l.5-3.97c.49-.39,1.03-.55,1.52-.53.97.01,1.5.79,1.5,2,0,1.57-.82,2.91-2.21,2.91-.44,0-.94-.14-1.31-.4M4.27,15.98h2.26l.37-3.05c.36.27,1.02.58,1.86.58,2.62,0,4.21-2.31,4.21-4.83,0-2.15-1.02-3.65-2.92-3.65-.9,0-1.73.29-2.36.81l.08-.6h-2.19l-1.31,10.73ZM28.02,5.25l-2.45,5.58-1.28-5.58h-2.52l2.24,8.09-1.31,2.65h2.48l5.28-10.73h-2.45Z"/>
  </g>
</svg>