<svg width="64" height="64" viewBox="0 0 64 64" fill="none" xmlns="http://www.w3.org/2000/svg">
<g clip-path="url(#clip0_17_2905)">
<path d="M26.666 31.9998C26.666 33.4143 27.2279 34.7709 28.2281 35.7711C29.2283 36.7713 30.5849 37.3332 31.9993 37.3332C33.4138 37.3332 34.7704 36.7713 35.7706 35.7711C36.7708 34.7709 37.3327 33.4143 37.3327 31.9998C37.3327 30.5853 36.7708 29.2288 35.7706 28.2286C34.7704 27.2284 33.4138 26.6665 31.9993 26.6665C30.5849 26.6665 29.2283 27.2284 28.2281 28.2286C27.2279 29.2288 26.666 30.5853 26.666 31.9998Z" stroke="#4770FF" stroke-width="2" stroke-linecap="round" stroke-linejoin="round"/>
<path d="M56 32C49.6 42.6667 41.6 48 32 48C22.4 48 14.4 42.6667 8 32C14.4 21.3333 22.4 16 32 16C41.6 16 49.6 21.3333 56 32Z" stroke="#4770FF" stroke-width="2" stroke-linecap="round" stroke-linejoin="round"/>
</g>
<defs>
<clipPath id="clip0_17_2905">
<rect width="64" height="64" fill="white"/>
</clipPath>
</defs>
</svg>
